<svg xmlns="http://www.w3.org/2000/svg" xmlns:xlink="http://www.w3.org/1999/xlink" width="500" zoomAndPan="magnify" viewBox="0 0 375 374.999991" height="500" preserveAspectRatio="xMidYMid meet" version="1.0"><defs><clipPath id="c1fd6b5910"><path d="M 225.289062 152.234375 L 284.539062 152.234375 L 284.539062 222.734375 L 225.289062 222.734375 Z M 225.289062 152.234375 " clip-rule="nonzero"/></clipPath><clipPath id="66b5e41001"><path d="M 227 152.234375 L 283 152.234375 L 283 217 L 227 217 Z M 227 152.234375 " clip-rule="nonzero"/></clipPath><clipPath id="fb7ce9a045"><path d="M 225.289062 152.234375 L 284.539062 152.234375 L 284.539062 222.734375 L 225.289062 222.734375 Z M 225.289062 152.234375 " clip-rule="nonzero"/></clipPath><clipPath id="78671a7b09"><path d="M 269.378906 152.234375 L 318.128906 152.234375 L 318.128906 222.734375 L 269.378906 222.734375 Z M 269.378906 152.234375 " clip-rule="nonzero"/></clipPath><clipPath id="61ab230377"><path d="M 269.378906 152.234375 L 318.128906 152.234375 L 318.128906 222.734375 L 269.378906 222.734375 Z M 269.378906 152.234375 " clip-rule="nonzero"/></clipPath><clipPath id="3ab2375a42"><path d="M 318.222656 152.234375 L 366.972656 152.234375 L 366.972656 222.734375 L 318.222656 222.734375 Z M 318.222656 152.234375 " clip-rule="nonzero"/></clipPath><clipPath id="9e01fde12c"><path d="M 318.222656 152.234375 L 366.972656 152.234375 L 366.972656 222.734375 L 318.222656 222.734375 Z M 318.222656 152.234375 " clip-rule="nonzero"/></clipPath><clipPath id="e54bce709b"><path d="M 23.25 152.234375 L 72 152.234375 L 72 222.734375 L 23.25 222.734375 Z M 23.25 152.234375 " clip-rule="nonzero"/></clipPath><clipPath id="c44f8e5f26"><path d="M 23.25 152.234375 L 72 152.234375 L 72 222.734375 L 23.25 222.734375 Z M 23.25 152.234375 " clip-rule="nonzero"/></clipPath><clipPath id="003873d59b"><path d="M 105.84375 152.234375 L 157.59375 152.234375 L 157.59375 222.734375 L 105.84375 222.734375 Z M 105.84375 152.234375 " clip-rule="nonzero"/></clipPath><clipPath id="c4822ee943"><path d="M 105.84375 152.234375 L 157.59375 152.234375 L 157.59375 222.734375 L 105.84375 222.734375 Z M 105.84375 152.234375 " clip-rule="nonzero"/></clipPath><clipPath id="bf94859925"><path d="M 157.597656 152.234375 L 208.597656 152.234375 L 208.597656 222.734375 L 157.597656 222.734375 Z M 157.597656 152.234375 " clip-rule="nonzero"/></clipPath><clipPath id="17207e2f24"><path d="M 157.597656 152.234375 L 208.597656 152.234375 L 208.597656 222.734375 L 157.597656 222.734375 Z M 157.597656 152.234375 " clip-rule="nonzero"/></clipPath><clipPath id="2936102136"><path d="M 64.609375 177.363281 L 109.609375 177.363281 L 109.609375 199 L 64.609375 199 Z M 64.609375 177.363281 " clip-rule="nonzero"/></clipPath><clipPath id="1350e80fe0"><path d="M 64.609375 202 L 109.609375 202 L 109.609375 223 L 64.609375 223 Z M 64.609375 202 " clip-rule="nonzero"/></clipPath><clipPath id="f62d4f8ff1"><path d="M 60.507812 174.382812 L 107.757812 174.382812 L 107.757812 196 L 60.507812 196 Z M 60.507812 174.382812 " clip-rule="nonzero"/></clipPath><clipPath id="f4a980108c"><path d="M 60.507812 200 L 107.757812 200 L 107.757812 221.632812 L 60.507812 221.632812 Z M 60.507812 200 " clip-rule="nonzero"/></clipPath><clipPath id="c26aac193d"><path d="M 62.777344 177.363281 L 104.777344 177.363281 L 104.777344 197 L 62.777344 197 Z M 62.777344 177.363281 " clip-rule="nonzero"/></clipPath><clipPath id="8b4de31366"><path d="M 62.777344 200 L 104.777344 200 L 104.777344 220.113281 L 62.777344 220.113281 Z M 62.777344 200 " clip-rule="nonzero"/></clipPath><clipPath id="a0b910def3"><path d="M 62.777344 177.363281 L 104.777344 177.363281 L 104.777344 197 L 62.777344 197 Z M 62.777344 177.363281 " clip-rule="nonzero"/></clipPath><clipPath id="2f00b69466"><path d="M 79 193 L 89 193 L 89 199.113281 L 79 199.113281 Z M 79 193 " clip-rule="nonzero"/></clipPath><clipPath id="43502f6078"><path d="M 77.023438 192.257812 L 90.523438 192.257812 L 90.523438 197 L 77.023438 197 Z M 77.023438 192.257812 " clip-rule="nonzero"/></clipPath><clipPath id="113703c892"><path d="M 77.023438 200 L 90.523438 200 L 90.523438 205.007812 L 77.023438 205.007812 Z M 77.023438 200 " clip-rule="nonzero"/></clipPath><clipPath id="dbeedd75ac"><path d="M 78 192.257812 L 90 192.257812 L 90 204 L 78 204 Z M 78 192.257812 " clip-rule="nonzero"/></clipPath></defs><path fill="#1d2c5e" d="M 256.730469 157.734375 L 282.722656 220.277344 L 271.671875 221.371094 L 259.320312 192.582031 L 252.394531 191.507812 L 241.578125 214.441406 L 227.90625 215.101562 Z M 252.84375 185.222656 L 259.109375 186.089844 L 256.519531 175.902344 Z M 252.84375 185.222656 " fill-opacity="1" fill-rule="nonzero"/><g clip-path="url(#c1fd6b5910)"><path stroke-linecap="butt" transform="matrix(0.173296, 0, 0, 0.173204, 170.888139, -5007.671431)" fill="none" stroke-linejoin="miter" d="M 495.350054 29822.598953 L 645.33703 30183.692339 L 581.568897 30190.007132 L 510.294653 30023.792763 L 470.329684 30017.590734 L 407.914003 30149.998409 L 329.020944 30153.809837 Z M 472.921884 29981.303228 L 509.077446 29986.309957 L 494.132847 29927.492172 Z M 472.921884 29981.303228 " stroke="#1d2c5e" stroke-width="14.58" stroke-opacity="1" stroke-miterlimit="2"/></g><g clip-path="url(#66b5e41001)"><path fill="#ffcb05" d="M 256.222656 152.816406 L 282.214844 215.359375 L 271.160156 216.449219 L 258.8125 187.664062 L 251.882812 186.589844 L 241.070312 209.523438 L 227.398438 210.179688 Z M 252.335938 180.304688 L 258.601562 181.167969 L 256.007812 170.984375 Z M 252.335938 180.304688 " fill-opacity="1" fill-rule="nonzero"/></g><g clip-path="url(#fb7ce9a045)"><path stroke-linecap="butt" transform="matrix(0.173296, 0, 0, 0.173204, 170.37865, -5012.590471)" fill="none" stroke-linejoin="miter" d="M 495.359727 29822.605136 L 645.346703 30183.698522 L 581.556029 30189.990762 L 510.304326 30023.798946 L 470.316816 30017.596918 L 407.923676 30150.004592 L 329.030617 30153.793467 Z M 472.931557 29981.309412 L 509.087119 29986.293587 L 494.119979 29927.498355 Z M 472.931557 29981.309412 " stroke="#395faa" stroke-width="14.58" stroke-opacity="1" stroke-miterlimit="2"/></g><path fill="#1d2c5e" d="M 272.210938 166.398438 C 274.832031 165.523438 277.300781 164.710938 279.601562 163.984375 C 281.921875 163.238281 284.351562 162.535156 286.90625 161.875 C 289.460938 161.214844 291.910156 160.703125 294.253906 160.296875 C 296.042969 159.996094 297.894531 159.847656 299.769531 159.847656 C 302.921875 159.847656 304.964844 159.933594 305.945312 160.105469 C 307.414062 160.382812 308.820312 160.851562 310.121094 161.46875 C 311.441406 162.109375 312.613281 162.941406 313.632812 163.984375 C 314.65625 165.054688 315.507812 166.289062 316.148438 167.71875 C 316.402344 168.316406 316.550781 168.933594 316.550781 169.574219 C 316.550781 172.007812 315.210938 174.992188 312.570312 178.554688 C 309.90625 182.117188 307.246094 185.230469 304.5625 187.878906 C 301.898438 190.523438 299.898438 192.421875 298.578125 193.574219 L 304.414062 214.113281 L 295.914062 220.257812 L 280.984375 177.597656 C 280.941406 177.597656 280.75 177.789062 280.367188 178.214844 C 280.003906 178.621094 279.515625 179.152344 278.917969 179.8125 C 278.324219 180.476562 277.960938 180.878906 277.8125 181.03125 C 277.746094 181.03125 277.535156 180.558594 277.171875 179.644531 C 276.8125 178.703125 276.34375 177.402344 275.746094 175.738281 C 275.148438 174.074219 274.46875 172.242188 273.722656 170.214844 C 272.976562 168.1875 272.464844 166.910156 272.210938 166.398438 Z M 293.230469 175.441406 L 295.914062 185.039062 C 297.257812 183.675781 298.917969 181.796875 300.917969 179.429688 C 302.902344 177.082031 303.902344 175.355469 303.902344 174.289062 C 303.902344 173.882812 303.730469 173.648438 303.390625 173.585938 C 302.410156 173.371094 301.453125 173.265625 300.492188 173.265625 C 297.617188 173.265625 295.210938 173.992188 293.230469 175.441406 Z M 293.230469 175.441406 " fill-opacity="1" fill-rule="nonzero"/><g clip-path="url(#78671a7b09)"><path stroke-linecap="butt" transform="matrix(0.212974, 0, 0, 0.213313, -3350.421567, -6213.756552)" fill="none" stroke-linejoin="miter" d="M 17009.701449 29909.808281 C 17022.008527 29905.70633 17033.600291 29901.897376 17044.403375 29898.491292 C 17055.298165 29894.993646 17066.706515 29891.697436 17078.70179 29888.60266 C 17090.697065 29885.507885 17102.197121 29883.108976 17113.20196 29881.204499 C 17121.602321 29879.794453 17130.296144 29879.098587 17139.100015 29879.098587 C 17153.901524 29879.098587 17163.494075 29879.501457 17168.097766 29880.307197 C 17174.994132 29881.607369 17181.597035 29883.804843 17187.704721 29886.698183 C 17193.904114 29889.701397 17199.406533 29893.601913 17204.193638 29898.491292 C 17208.999085 29903.508857 17212.99751 29909.295537 17216.005499 29915.997832 C 17217.19769 29918.799611 17217.894663 29921.692951 17217.894663 29924.696165 C 17217.894663 29936.104716 17211.603563 29950.095299 17199.204778 29966.796099 C 17186.695944 29983.496899 17174.205452 29998.091786 17161.604911 30010.507513 C 17149.096077 30022.904926 17139.705281 30031.804695 17133.505889 30037.206818 L 17160.907938 30133.492789 L 17120.997055 30162.298007 L 17050.89623 29962.30959 C 17050.694474 29962.30959 17049.795746 29963.206892 17047.998289 29965.20293 C 17046.292539 29967.107407 17043.999864 29969.597878 17041.19363 29972.692653 C 17038.405738 29975.805741 17036.699987 29977.691906 17036.003014 29978.406085 C 17035.691211 29978.406085 17034.700775 29976.190299 17032.995025 29971.905225 C 17031.307616 29967.491965 17029.106648 29961.393976 17026.300415 29953.592944 C 17023.494181 29945.791913 17020.302777 29937.203453 17016.79957 29927.69938 C 17013.296363 29918.195306 17010.89364 29912.20719 17009.701449 29909.808281 Z M 17108.396514 29952.201211 L 17120.997055 29997.194484 C 17127.306496 29990.803499 17135.10159 29981.995292 17144.492386 29970.89805 C 17153.809817 29959.892369 17158.505215 29951.798341 17158.505215 29946.799088 C 17158.505215 29944.894611 17157.698193 29943.795874 17156.102491 29943.502878 C 17151.4988 29942.495702 17147.005158 29942.001271 17142.493174 29942.001271 C 17128.993905 29942.001271 17117.695603 29945.407355 17108.396514 29952.201211 Z M 17108.396514 29952.201211 " stroke="#1d2c5e" stroke-width="14.58" stroke-opacity="1" stroke-miterlimit="2"/></g><path fill="#ffcb05" d="M 271.59375 160.339844 C 274.210938 159.464844 276.683594 158.652344 278.984375 157.929688 C 281.304688 157.179688 283.730469 156.476562 286.289062 155.816406 C 288.84375 155.15625 291.292969 154.644531 293.636719 154.238281 C 295.425781 153.9375 297.277344 153.789062 299.152344 153.789062 C 302.304688 153.789062 304.347656 153.875 305.328125 154.046875 C 306.796875 154.324219 308.203125 154.792969 309.503906 155.410156 C 310.824219 156.050781 311.992188 156.882812 313.015625 157.929688 C 314.039062 158.996094 314.890625 160.230469 315.53125 161.660156 C 315.785156 162.257812 315.933594 162.875 315.933594 163.515625 C 315.933594 165.949219 314.59375 168.933594 311.953125 172.496094 C 309.289062 176.058594 306.625 179.175781 303.945312 181.820312 C 301.28125 184.464844 299.277344 186.363281 297.960938 187.515625 L 303.792969 208.058594 L 295.296875 214.199219 L 280.367188 171.539062 C 280.324219 171.539062 280.132812 171.730469 279.75 172.15625 C 279.386719 172.5625 278.898438 173.09375 278.300781 173.753906 C 277.707031 174.417969 277.34375 174.824219 277.195312 174.972656 C 277.128906 174.972656 276.917969 174.503906 276.554688 173.585938 C 276.191406 172.648438 275.722656 171.34375 275.128906 169.683594 C 274.53125 168.019531 273.851562 166.183594 273.105469 164.15625 C 272.359375 162.128906 271.847656 160.851562 271.59375 160.339844 Z M 292.613281 169.382812 L 295.296875 178.980469 C 296.640625 177.617188 298.300781 175.738281 300.300781 173.371094 C 302.28125 171.027344 303.285156 169.296875 303.285156 168.230469 C 303.285156 167.824219 303.113281 167.589844 302.773438 167.527344 C 301.792969 167.3125 300.835938 167.207031 299.875 167.207031 C 297 167.207031 294.59375 167.933594 292.613281 169.382812 Z M 292.613281 169.382812 " fill-opacity="1" fill-rule="nonzero"/><g clip-path="url(#61ab230377)"><path stroke-linecap="butt" transform="matrix(0.212974, 0, 0, 0.213313, -3351.039375, -6219.814632)" fill="none" stroke-linejoin="miter" d="M 17009.704362 29909.805871 C 17021.993099 29905.70392 17033.603204 29901.894966 17044.406288 29898.507194 C 17055.301079 29894.991236 17066.691087 29891.695026 17078.704703 29888.60025 C 17090.699978 29885.505475 17102.200035 29883.106566 17113.204874 29881.202089 C 17121.605234 29879.792043 17130.299057 29879.096176 17139.102928 29879.096176 C 17153.904437 29879.096176 17163.496988 29879.499047 17168.100679 29880.304787 C 17174.997045 29881.604959 17181.599949 29883.802433 17187.707634 29886.695773 C 17193.907027 29889.698987 17199.391105 29893.599503 17204.196552 29898.507194 C 17209.001998 29903.506447 17213.000423 29909.293127 17216.008412 29915.995422 C 17217.200603 29918.797201 17217.897576 29921.690541 17217.897576 29924.693755 C 17217.897576 29936.102306 17211.606477 29950.092888 17199.207691 29966.793688 C 17186.698857 29983.494488 17174.190024 29998.107688 17161.607824 30010.505102 C 17149.098991 30022.902516 17139.689853 30031.802285 17133.508802 30037.204407 L 17160.89251 30133.508691 L 17120.999968 30162.295596 L 17050.899143 29962.30718 C 17050.697388 29962.30718 17049.798659 29963.204481 17048.001202 29965.20052 C 17046.295452 29967.104997 17044.002777 29969.595467 17041.196543 29972.690243 C 17038.408651 29975.80333 17036.702901 29977.707808 17036.005928 29978.403674 C 17035.694124 29978.403674 17034.703688 29976.206201 17032.997938 29971.902815 C 17031.292188 29967.507867 17029.09122 29961.391566 17026.303328 29953.608846 C 17023.497094 29945.807815 17020.305691 29937.201043 17016.802483 29927.696969 C 17013.299276 29918.192896 17010.896553 29912.20478 17009.704362 29909.805871 Z M 17108.399427 29952.198801 L 17120.999968 29997.192074 C 17127.309409 29990.801088 17135.104504 29981.992881 17144.4953 29970.895639 C 17153.794389 29959.908271 17158.508128 29951.795931 17158.508128 29946.796678 C 17158.508128 29944.892201 17157.701106 29943.793464 17156.105405 29943.500467 C 17151.501714 29942.493292 17147.008071 29941.99886 17142.496087 29941.99886 C 17128.996818 29941.99886 17117.698516 29945.404945 17108.399427 29952.198801 Z M 17108.399427 29952.198801 " stroke="#395faa" stroke-width="14.58" stroke-opacity="1" stroke-miterlimit="2"/></g><path fill="#1d2c5e" d="M 321.054688 166.398438 C 323.675781 165.523438 326.144531 164.710938 328.445312 163.984375 C 330.769531 163.238281 333.195312 162.535156 335.75 161.875 C 338.308594 161.214844 340.757812 160.703125 343.097656 160.296875 C 344.886719 159.996094 346.742188 159.847656 348.613281 159.847656 C 351.765625 159.847656 353.8125 159.933594 354.792969 160.105469 C 356.261719 160.382812 357.667969 160.851562 358.964844 161.46875 C 360.285156 162.109375 361.457031 162.941406 362.480469 163.984375 C 363.5 165.054688 364.355469 166.289062 364.992188 167.71875 C 365.246094 168.316406 365.398438 168.933594 365.398438 169.574219 C 365.398438 172.007812 364.054688 174.992188 361.414062 178.554688 C 358.753906 182.117188 356.089844 185.230469 353.40625 187.878906 C 350.746094 190.523438 348.742188 192.421875 347.421875 193.574219 L 353.257812 214.113281 L 344.761719 220.257812 L 329.832031 177.597656 C 329.789062 177.597656 329.597656 177.789062 329.214844 178.214844 C 328.851562 178.621094 328.359375 179.152344 327.765625 179.8125 C 327.167969 180.476562 326.804688 180.878906 326.65625 181.03125 C 326.59375 181.03125 326.378906 180.558594 326.019531 179.644531 C 325.65625 178.703125 325.1875 177.402344 324.589844 175.738281 C 323.996094 174.074219 323.3125 172.242188 322.566406 170.214844 C 321.824219 168.1875 321.3125 166.910156 321.054688 166.398438 Z M 342.078125 175.441406 L 344.761719 185.039062 C 346.101562 183.675781 347.761719 181.796875 349.765625 179.429688 C 351.746094 177.082031 352.746094 175.355469 352.746094 174.289062 C 352.746094 173.882812 352.574219 173.648438 352.234375 173.585938 C 351.253906 173.371094 350.296875 173.265625 349.339844 173.265625 C 346.464844 173.265625 344.058594 173.992188 342.078125 175.441406 Z M 342.078125 175.441406 " fill-opacity="1" fill-rule="nonzero"/><g clip-path="url(#3ab2375a42)"><path stroke-linecap="butt" transform="matrix(0.212974, 0, 0, 0.213313, -3301.576195, -6213.756552)" fill="none" stroke-linejoin="miter" d="M 17009.693829 29909.808281 C 17022.000908 29905.70633 17033.592671 29901.897376 17044.395755 29898.491292 C 17055.308887 29894.993646 17066.698896 29891.697436 17078.69417 29888.60266 C 17090.707786 29885.507885 17102.207843 29883.108976 17113.194341 29881.204499 C 17121.594701 29879.794453 17130.306866 29879.098587 17139.092395 29879.098587 C 17153.893904 29879.098587 17163.504797 29879.501457 17168.108488 29880.307197 C 17175.004854 29881.607369 17181.607757 29883.804843 17187.697101 29886.698183 C 17193.896494 29889.701397 17199.398914 29893.601913 17204.20436 29898.491292 C 17208.991465 29903.508857 17213.008231 29909.295537 17215.997879 29915.997832 C 17217.19007 29918.799611 17217.905385 29921.692951 17217.905385 29924.696165 C 17217.905385 29936.104716 17211.595944 29950.095299 17199.197158 29966.796099 C 17186.706666 29983.496899 17174.197832 29998.091786 17161.597291 30010.507513 C 17149.106799 30022.904926 17139.697662 30031.804695 17133.498269 30037.206818 L 17160.900318 30133.492789 L 17121.007777 30162.298007 L 17050.906952 29962.30959 C 17050.705196 29962.30959 17049.806468 29963.206892 17048.009011 29965.20293 C 17046.303261 29967.107407 17043.992244 29969.597878 17041.204352 29972.692653 C 17038.398118 29975.805741 17036.692368 29977.691906 17035.995395 29978.406085 C 17035.701932 29978.406085 17034.693155 29976.190299 17033.005747 29971.905225 C 17031.299997 29967.491965 17029.099029 29961.393976 17026.292795 29953.592944 C 17023.504902 29945.791913 17020.295158 29937.203453 17016.79195 29927.69938 C 17013.307085 29918.195306 17010.904362 29912.20719 17009.693829 29909.808281 Z M 17108.407236 29952.201211 L 17121.007777 29997.194484 C 17127.298876 29990.803499 17135.093971 29981.995292 17144.503108 29970.89805 C 17153.802197 29959.892369 17158.497595 29951.798341 17158.497595 29946.799088 C 17158.497595 29944.894611 17157.690573 29943.795874 17156.094872 29943.502878 C 17151.491181 29942.495702 17146.997538 29942.001271 17142.503896 29942.001271 C 17129.004626 29942.001271 17117.706325 29945.407355 17108.407236 29952.201211 Z M 17108.407236 29952.201211 " stroke="#1d2c5e" stroke-width="14.58" stroke-opacity="1" stroke-miterlimit="2"/></g><path fill="#ffcb05" d="M 320.4375 160.339844 C 323.058594 159.464844 325.527344 158.652344 327.828125 157.929688 C 330.148438 157.179688 332.578125 156.476562 335.132812 155.816406 C 337.6875 155.15625 340.136719 154.644531 342.480469 154.238281 C 344.269531 153.9375 346.125 153.789062 347.996094 153.789062 C 351.148438 153.789062 353.195312 153.875 354.171875 154.046875 C 355.644531 154.324219 357.046875 154.792969 358.347656 155.410156 C 359.667969 156.050781 360.839844 156.882812 361.863281 157.929688 C 362.882812 158.996094 363.734375 160.230469 364.375 161.660156 C 364.628906 162.257812 364.78125 162.875 364.78125 163.515625 C 364.78125 165.949219 363.4375 168.933594 360.796875 172.496094 C 358.132812 176.058594 355.472656 179.175781 352.789062 181.820312 C 350.125 184.464844 348.125 186.363281 346.804688 187.515625 L 352.640625 208.058594 L 344.140625 214.199219 L 329.210938 171.539062 C 329.171875 171.539062 328.980469 171.730469 328.59375 172.15625 C 328.234375 172.5625 327.742188 173.09375 327.148438 173.753906 C 326.550781 174.417969 326.1875 174.824219 326.039062 174.972656 C 325.976562 174.972656 325.761719 174.503906 325.402344 173.585938 C 325.039062 172.648438 324.570312 171.34375 323.972656 169.683594 C 323.378906 168.019531 322.695312 166.183594 321.949219 164.15625 C 321.207031 162.128906 320.695312 160.851562 320.4375 160.339844 Z M 341.457031 169.382812 L 344.140625 178.980469 C 345.484375 177.617188 347.144531 175.738281 349.148438 173.371094 C 351.128906 171.027344 352.128906 169.296875 352.128906 168.230469 C 352.128906 167.824219 351.957031 167.589844 351.617188 167.527344 C 350.636719 167.3125 349.679688 167.207031 348.722656 167.207031 C 345.847656 167.207031 343.4375 167.933594 341.457031 169.382812 Z M 341.457031 169.382812 " fill-opacity="1" fill-rule="nonzero"/><g clip-path="url(#9e01fde12c)"><path stroke-linecap="butt" transform="matrix(0.212974, 0, 0, 0.213313, -3302.194003, -6219.814632)" fill="none" stroke-linejoin="miter" d="M 17009.696743 29909.805871 C 17022.003821 29905.70392 17033.595585 29901.894966 17044.398668 29898.507194 C 17055.293459 29894.991236 17066.701809 29891.695026 17078.697084 29888.60025 C 17090.692358 29885.505475 17102.192415 29883.106566 17113.197254 29881.202089 C 17121.597615 29879.792043 17130.309779 29879.096176 17139.095309 29879.096176 C 17153.896817 29879.096176 17163.50771 29879.499047 17168.09306 29880.304787 C 17175.007767 29881.604959 17181.592329 29883.802433 17187.700015 29886.695773 C 17193.899407 29889.698987 17199.401827 29893.599503 17204.207273 29898.507194 C 17208.994378 29903.506447 17212.992803 29909.293127 17216.000793 29915.995422 C 17217.192983 29918.797201 17217.908298 29921.690541 17217.908298 29924.693755 C 17217.908298 29936.102306 17211.598857 29950.092888 17199.200072 29966.793688 C 17186.691238 29983.494488 17174.200745 29998.107688 17161.600205 30010.505102 C 17149.091371 30022.902516 17139.700575 30031.802285 17133.501182 30037.204407 L 17160.903232 30133.508691 L 17120.992348 30162.295596 L 17050.891524 29962.30718 C 17050.70811 29962.30718 17049.809381 29963.204481 17047.993583 29965.20052 C 17046.306174 29967.104997 17043.995158 29969.595467 17041.207265 29972.690243 C 17038.401031 29975.80333 17036.695281 29977.707808 17035.998308 29978.403674 C 17035.704846 29978.403674 17034.696069 29976.206201 17033.00866 29971.902815 C 17031.30291 29967.507867 17029.101942 29961.391566 17026.295708 29953.608846 C 17023.507816 29945.807815 17020.298071 29937.201043 17016.794864 29927.696969 C 17013.309998 29918.192896 17010.907275 29912.20478 17009.696743 29909.805871 Z M 17108.391808 29952.198801 L 17120.992348 29997.192074 C 17127.30179 29990.801088 17135.096884 29981.992881 17144.506021 29970.895639 C 17153.80511 29959.908271 17158.500508 29951.795931 17158.500508 29946.796678 C 17158.500508 29944.892201 17157.693487 29943.793464 17156.097785 29943.500467 C 17151.494094 29942.493292 17147.000451 29941.99886 17142.506809 29941.99886 C 17129.00754 29941.99886 17117.690897 29945.404945 17108.391808 29952.198801 Z M 17108.391808 29952.198801 " stroke="#395faa" stroke-width="14.58" stroke-opacity="1" stroke-miterlimit="2"/></g><path fill="#1d2c5e" d="M 26.082031 166.398438 C 28.699219 165.523438 31.171875 164.710938 33.472656 163.984375 C 35.792969 163.238281 38.222656 162.535156 40.777344 161.875 C 43.332031 161.214844 45.78125 160.703125 48.125 160.296875 C 49.914062 159.996094 51.765625 159.847656 53.640625 159.847656 C 56.792969 159.847656 58.835938 159.933594 59.816406 160.105469 C 61.285156 160.382812 62.691406 160.851562 63.992188 161.46875 C 65.3125 162.109375 66.484375 162.941406 67.503906 163.984375 C 68.527344 165.054688 69.378906 166.289062 70.019531 167.71875 C 70.273438 168.316406 70.421875 168.933594 70.421875 169.574219 C 70.421875 172.007812 69.082031 174.992188 66.441406 178.554688 C 63.777344 182.117188 61.117188 185.230469 58.433594 187.878906 C 55.769531 190.523438 53.769531 192.421875 52.449219 193.574219 L 58.285156 214.113281 L 49.785156 220.257812 L 34.855469 177.597656 C 34.8125 177.597656 34.621094 177.789062 34.238281 178.214844 C 33.875 178.621094 33.386719 179.152344 32.789062 179.8125 C 32.195312 180.476562 31.832031 180.878906 31.683594 181.03125 C 31.617188 181.03125 31.40625 180.558594 31.042969 179.644531 C 30.683594 178.703125 30.214844 177.402344 29.617188 175.738281 C 29.019531 174.074219 28.339844 172.242188 27.59375 170.214844 C 26.847656 168.1875 26.335938 166.910156 26.082031 166.398438 Z M 47.101562 175.441406 L 49.785156 185.039062 C 51.128906 183.675781 52.789062 181.796875 54.789062 179.429688 C 56.769531 177.082031 57.773438 175.355469 57.773438 174.289062 C 57.773438 173.882812 57.601562 173.648438 57.261719 173.585938 C 56.28125 173.371094 55.324219 173.265625 54.363281 173.265625 C 51.488281 173.265625 49.082031 173.992188 47.101562 175.441406 Z M 47.101562 175.441406 " fill-opacity="1" fill-rule="nonzero"/><g clip-path="url(#e54bce709b)"><path stroke-linecap="butt" transform="matrix(0.212974, 0, 0, 0.213313, -3596.550695, -6213.756552)" fill="none" stroke-linejoin="miter" d="M 17009.702489 29909.808281 C 17021.991226 29905.70633 17033.601332 29901.897376 17044.404415 29898.491292 C 17055.299206 29894.993646 17066.707556 29891.697436 17078.70283 29888.60266 C 17090.698105 29885.507885 17102.198162 29883.108976 17113.203001 29881.204499 C 17121.603361 29879.794453 17130.297184 29879.098587 17139.101056 29879.098587 C 17153.902564 29879.098587 17163.495116 29879.501457 17168.098807 29880.307197 C 17174.995172 29881.607369 17181.598076 29883.804843 17187.705761 29886.698183 C 17193.905154 29889.701397 17199.407574 29893.601913 17204.194679 29898.491292 C 17209.000125 29903.508857 17212.99855 29909.295537 17216.006539 29915.997832 C 17217.19873 29918.799611 17217.895703 29921.692951 17217.895703 29924.696165 C 17217.895703 29936.104716 17211.604604 29950.095299 17199.205818 29966.796099 C 17186.696985 29983.496899 17174.206492 29998.091786 17161.605951 30010.507513 C 17149.097118 30022.904926 17139.706322 30031.804695 17133.506929 30037.206818 L 17160.908978 30133.492789 L 17120.998095 30162.298007 L 17050.89727 29962.30959 C 17050.695515 29962.30959 17049.796786 29963.206892 17047.999329 29965.20293 C 17046.293579 29967.107407 17044.000904 29969.597878 17041.194671 29972.692653 C 17038.406778 29975.805741 17036.701028 29977.691906 17036.004055 29978.406085 C 17035.692251 29978.406085 17034.701815 29976.190299 17032.996065 29971.905225 C 17031.308657 29967.491965 17029.107689 29961.393976 17026.301455 29953.592944 C 17023.495221 29945.791913 17020.303818 29937.203453 17016.800611 29927.69938 C 17013.297403 29918.195306 17010.89468 29912.20719 17009.702489 29909.808281 Z M 17108.397555 29952.201211 L 17120.998095 29997.194484 C 17127.307536 29990.803499 17135.102631 29981.995292 17144.493427 29970.89805 C 17153.792516 29959.892369 17158.506255 29951.798341 17158.506255 29946.799088 C 17158.506255 29944.894611 17157.699234 29943.795874 17156.103532 29943.502878 C 17151.499841 29942.495702 17147.006198 29942.001271 17142.494214 29942.001271 C 17128.994945 29942.001271 17117.696644 29945.407355 17108.397555 29952.201211 Z M 17108.397555 29952.201211 " stroke="#1d2c5e" stroke-width="14.58" stroke-opacity="1" stroke-miterlimit="2"/></g><path fill="#ffcb05" d="M 25.464844 160.339844 C 28.082031 159.464844 30.554688 158.652344 32.855469 157.929688 C 35.175781 157.179688 37.601562 156.476562 40.160156 155.816406 C 42.714844 155.15625 45.164062 154.644531 47.507812 154.238281 C 49.296875 153.9375 51.148438 153.789062 53.023438 153.789062 C 56.175781 153.789062 58.21875 153.875 59.199219 154.046875 C 60.667969 154.324219 62.074219 154.792969 63.371094 155.410156 C 64.695312 156.050781 65.863281 156.882812 66.886719 157.929688 C 67.910156 158.996094 68.761719 160.230469 69.398438 161.660156 C 69.65625 162.257812 69.804688 162.875 69.804688 163.515625 C 69.804688 165.949219 68.464844 168.933594 65.820312 172.496094 C 63.160156 176.058594 60.496094 179.175781 57.816406 181.820312 C 55.152344 184.464844 53.148438 186.363281 51.828125 187.515625 L 57.664062 208.058594 L 49.167969 214.199219 L 34.238281 171.539062 C 34.195312 171.539062 34.003906 171.730469 33.621094 172.15625 C 33.257812 172.5625 32.769531 173.09375 32.171875 173.753906 C 31.574219 174.417969 31.214844 174.824219 31.066406 174.972656 C 31 174.972656 30.789062 174.503906 30.425781 173.585938 C 30.0625 172.648438 29.59375 171.34375 29 169.683594 C 28.402344 168.019531 27.722656 166.183594 26.976562 164.15625 C 26.230469 162.128906 25.71875 160.851562 25.464844 160.339844 Z M 46.484375 169.382812 L 49.167969 178.980469 C 50.507812 177.617188 52.171875 175.738281 54.171875 173.371094 C 56.152344 171.027344 57.15625 169.296875 57.15625 168.230469 C 57.15625 167.824219 56.984375 167.589844 56.644531 167.527344 C 55.664062 167.3125 54.707031 167.207031 53.746094 167.207031 C 50.871094 167.207031 48.464844 167.933594 46.484375 169.382812 Z M 46.484375 169.382812 " fill-opacity="1" fill-rule="nonzero"/><g clip-path="url(#c44f8e5f26)"><path stroke-linecap="butt" transform="matrix(0.212974, 0, 0, 0.213313, -3597.168503, -6219.814632)" fill="none" stroke-linejoin="miter" d="M 17009.705403 29909.805871 C 17021.99414 29905.70392 17033.604245 29901.894966 17044.407329 29898.507194 C 17055.302119 29894.991236 17066.692128 29891.695026 17078.705744 29888.60025 C 17090.701018 29885.505475 17102.201075 29883.106566 17113.205914 29881.202089 C 17121.606275 29879.792043 17130.300098 29879.096176 17139.103969 29879.096176 C 17153.905477 29879.096176 17163.498029 29879.499047 17168.10172 29880.304787 C 17174.998086 29881.604959 17181.600989 29883.802433 17187.690333 29886.695773 C 17193.908067 29889.698987 17199.392146 29893.599503 17204.197592 29898.507194 C 17209.003038 29903.506447 17213.001463 29909.293127 17215.991111 29915.995422 C 17217.201644 29918.797201 17217.898617 29921.690541 17217.898617 29924.693755 C 17217.898617 29936.102306 17211.607517 29950.092888 17199.19039 29966.793688 C 17186.699898 29983.494488 17174.191064 29998.107688 17161.608865 30010.505102 C 17149.100031 30022.902516 17139.690894 30031.802285 17133.491501 30037.204407 L 17160.89355 30133.508691 L 17121.001009 30162.295596 L 17050.900184 29962.30718 C 17050.698428 29962.30718 17049.7997 29963.204481 17048.002243 29965.20052 C 17046.296493 29967.104997 17044.003818 29969.595467 17041.197584 29972.690243 C 17038.39135 29975.80333 17036.703941 29977.707808 17036.006968 29978.403674 C 17035.695164 29978.403674 17034.704729 29976.206201 17032.998979 29971.902815 C 17031.293229 29967.507867 17029.092261 29961.391566 17026.304368 29953.608846 C 17023.498134 29945.807815 17020.306731 29937.201043 17016.803524 29927.696969 C 17013.300317 29918.192896 17010.897594 29912.20478 17009.705403 29909.805871 Z M 17108.400468 29952.198801 L 17121.001009 29997.192074 C 17127.292108 29990.801088 17135.105544 29981.992881 17144.49634 29970.895639 C 17153.795429 29959.908271 17158.509168 29951.795931 17158.509168 29946.796678 C 17158.509168 29944.892201 17157.702147 29943.793464 17156.106445 29943.500467 C 17151.502754 29942.493292 17147.009112 29941.99886 17142.497128 29941.99886 C 17128.997858 29941.99886 17117.699557 29945.404945 17108.400468 29952.198801 Z M 17108.400468 29952.198801 " stroke="#395faa" stroke-width="14.58" stroke-opacity="1" stroke-miterlimit="2"/></g><path fill="#1d2c5e" d="M 109.460938 165.386719 L 123.617188 159.453125 L 123.617188 168.582031 L 131.144531 160.582031 L 140.734375 168.582031 L 127.050781 188.433594 L 155.585938 210.363281 L 156.261719 221.539062 L 127.269531 205.78125 L 127.964844 219.476562 L 114.703125 219.710938 L 112.183594 171.320312 L 108.089844 172.234375 Z M 109.460938 165.386719 " fill-opacity="1" fill-rule="nonzero"/><g clip-path="url(#003873d59b)"><path stroke-linecap="butt" transform="matrix(0.182669, 0, 0, 0.182608, -2024.253607, -5272.345814)" fill="none" stroke-linejoin="miter" d="M 11680.798579 29778.200986 L 11758.295499 29745.707341 L 11758.295499 29795.699209 L 11799.50316 29751.889476 L 11852.001764 29795.699209 L 11777.092351 29904.410664 L 11933.3051 30024.502382 L 11937.004594 30085.703381 L 11778.289876 29999.410187 L 11782.096292 30074.408684 L 11709.49639 30075.692172 L 11695.703478 29810.69463 L 11673.292669 29815.700234 Z M 11680.798579 29778.200986 " stroke="#1d2c5e" stroke-width="14.58" stroke-opacity="1" stroke-miterlimit="2"/></g><path fill="#ffcb05" d="M 108.914062 160.199219 L 123.070312 154.265625 L 123.070312 163.394531 L 130.597656 155.398438 L 140.1875 163.394531 L 126.503906 183.246094 L 155.035156 205.175781 L 155.714844 216.351562 L 126.722656 200.59375 L 127.417969 214.289062 L 114.15625 214.527344 L 111.636719 166.136719 L 107.542969 167.046875 Z M 108.914062 160.199219 " fill-opacity="1" fill-rule="nonzero"/><g clip-path="url(#c4822ee943)"><path stroke-linecap="butt" transform="matrix(0.182669, 0, 0, 0.182608, -2024.801575, -5277.531733)" fill="none" stroke-linejoin="miter" d="M 11680.804563 29778.192331 L 11758.301483 29745.698687 L 11758.301483 29795.690555 L 11799.509144 29751.902214 L 11852.007747 29795.690555 L 11777.098335 29904.40201 L 11933.289699 30024.493728 L 11937.010577 30085.694727 L 11778.295859 29999.401533 L 11782.102275 30074.40003 L 11709.502374 30075.70491 L 11695.709462 29810.707367 L 11673.298652 29815.69158 Z M 11680.804563 29778.192331 " stroke="#395faa" stroke-width="14.58" stroke-opacity="1" stroke-miterlimit="2"/></g><path fill="#1d2c5e" d="M 177.617188 207.71875 L 207.226562 209.101562 L 207 221.3125 L 165.816406 219.246094 L 163.53125 176.804688 L 159.582031 177.523438 L 160.285156 164.148438 L 194.496094 159.058594 L 195.203125 171.289062 L 175.78125 174.496094 L 176.234375 183.277344 L 195.429688 180.050781 L 196.132812 190.175781 L 176.714844 193.863281 Z M 177.617188 207.71875 " fill-opacity="1" fill-rule="nonzero"/><g clip-path="url(#bf94859925)"><path stroke-linecap="butt" transform="matrix(0.184984, 0, 0, 0.184455, -737.612707, -5336.93773)" fill="none" stroke-linejoin="miter" d="M 4947.625619 30059.707444 L 5107.690432 30067.2042 L 5106.465662 30133.404372 L 4883.831978 30122.201591 L 4871.478691 29892.110465 L 4850.129676 29896.007084 L 4853.930688 29823.496084 L 5038.871009 29795.902091 L 5042.693137 29862.208148 L 4937.700756 29879.594694 L 4940.150296 29927.201215 L 5043.917908 29909.708783 L 5047.718919 29964.600288 L 4942.747654 29984.591638 Z M 4947.625619 30059.707444 " stroke="#1d2c5e" stroke-width="14.58" stroke-opacity="1" stroke-miterlimit="2"/></g><path fill="#ffcb05" d="M 177.074219 202.460938 L 206.683594 203.84375 L 206.457031 216.054688 L 165.273438 213.988281 L 162.988281 171.546875 L 159.035156 172.265625 L 159.742188 158.890625 L 193.953125 153.800781 L 194.660156 166.03125 L 175.238281 169.238281 L 175.691406 178.019531 L 194.882812 174.792969 L 195.589844 184.917969 L 176.167969 188.605469 Z M 177.074219 202.460938 " fill-opacity="1" fill-rule="nonzero"/><g clip-path="url(#17207e2f24)"><path stroke-linecap="butt" transform="matrix(0.184984, 0, 0, 0.184455, -738.156499, -5342.195169)" fill="none" stroke-linejoin="miter" d="M 4947.630069 30059.705422 L 5107.694883 30067.202179 L 5106.470112 30133.40235 L 4883.836428 30122.19957 L 4871.483141 29892.108444 L 4850.11301 29896.005063 L 4853.935138 29823.494063 L 5038.875459 29795.900069 L 5042.697588 29862.206127 L 4937.705206 29879.592672 L 4940.154747 29927.199193 L 5043.901241 29909.706762 L 5047.723369 29964.598266 L 4942.730988 29984.589617 Z M 4947.630069 30059.705422 " stroke="#395faa" stroke-width="14.58" stroke-opacity="1" stroke-miterlimit="2"/></g><g clip-path="url(#2936102136)"><path fill="#1d2c5e" d="M 109.84375 198.132812 L 96.511719 198.132812 C 95.621094 193.824219 91.800781 190.582031 87.226562 190.582031 C 82.652344 190.582031 78.832031 193.824219 77.941406 198.132812 L 64.609375 198.132812 C 65.585938 186.5 75.339844 177.363281 87.226562 177.363281 C 99.113281 177.363281 108.867188 186.5 109.84375 198.132812 Z M 109.84375 198.132812 " fill-opacity="1" fill-rule="nonzero"/></g><g clip-path="url(#1350e80fe0)"><path fill="#1d2c5e" d="M 109.808594 202.375 C 108.648438 213.824219 98.980469 222.757812 87.226562 222.757812 C 75.472656 222.757812 65.800781 213.824219 64.644531 202.375 L 78.03125 202.375 C 79.0625 206.492188 82.789062 209.542969 87.226562 209.542969 C 91.664062 209.542969 95.390625 206.492188 96.421875 202.375 Z M 109.808594 202.375 " fill-opacity="1" fill-rule="nonzero"/></g><path fill="#1d2c5e" d="M 92.390625 200.0625 C 92.390625 200.484375 92.335938 200.90625 92.234375 201.316406 C 92.128906 201.730469 91.976562 202.121094 91.777344 202.496094 C 91.574219 202.871094 91.332031 203.214844 91.046875 203.53125 C 90.761719 203.84375 90.441406 204.117188 90.085938 204.355469 C 89.730469 204.589844 89.355469 204.777344 88.953125 204.917969 C 88.554688 205.0625 88.140625 205.152344 87.71875 205.191406 C 87.296875 205.234375 86.875 205.222656 86.453125 205.15625 C 86.035156 205.09375 85.628906 204.980469 85.234375 204.816406 C 84.84375 204.652344 84.476562 204.441406 84.136719 204.1875 C 83.796875 203.933594 83.492188 203.640625 83.226562 203.308594 C 82.957031 202.980469 82.734375 202.621094 82.554688 202.238281 C 82.375 201.851562 82.246094 201.449219 82.164062 201.035156 C 82.085938 200.617188 82.054688 200.195312 82.078125 199.769531 C 82.101562 199.347656 82.175781 198.933594 82.304688 198.527344 C 82.429688 198.121094 82.601562 197.734375 82.824219 197.371094 C 83.046875 197.011719 83.308594 196.679688 83.609375 196.382812 C 83.914062 196.082031 84.246094 195.824219 84.613281 195.609375 C 84.980469 195.394531 85.367188 195.226562 85.773438 195.105469 C 86.183594 194.988281 86.597656 194.917969 87.023438 194.902344 C 87.449219 194.882812 87.867188 194.917969 88.285156 195.007812 C 88.699219 195.09375 89.097656 195.230469 89.480469 195.414062 C 89.863281 195.597656 90.21875 195.828125 90.542969 196.101562 C 90.871094 196.375 91.15625 196.683594 91.40625 197.027344 C 91.65625 197.371094 91.859375 197.738281 92.019531 198.132812 C 92.265625 198.753906 92.390625 199.394531 92.390625 200.0625 Z M 92.390625 200.0625 " fill-opacity="1" fill-rule="nonzero"/><g clip-path="url(#f62d4f8ff1)"><path fill="#395faa" d="M 107.382812 195.914062 L 93.566406 195.914062 C 92.644531 191.445312 88.6875 188.085938 83.945312 188.085938 C 79.203125 188.085938 75.246094 191.445312 74.324219 195.914062 L 60.507812 195.914062 C 61.519531 183.855469 71.625 174.386719 83.945312 174.386719 C 96.261719 174.386719 106.367188 183.855469 107.382812 195.914062 Z M 107.382812 195.914062 " fill-opacity="1" fill-rule="nonzero"/></g><g clip-path="url(#f4a980108c)"><path fill="#395faa" d="M 107.34375 200.304688 C 106.144531 212.171875 96.125 221.429688 83.945312 221.429688 C 71.761719 221.429688 61.746094 212.171875 60.542969 200.304688 L 74.414062 200.304688 C 75.484375 204.574219 79.34375 207.734375 83.945312 207.734375 C 88.542969 207.734375 92.402344 204.574219 93.472656 200.304688 Z M 107.34375 200.304688 " fill-opacity="1" fill-rule="nonzero"/></g><path fill="#395faa" d="M 89.296875 197.910156 C 89.296875 198.351562 89.242188 198.785156 89.132812 199.210938 C 89.027344 199.636719 88.867188 200.046875 88.660156 200.433594 C 88.453125 200.820312 88.199219 201.179688 87.902344 201.503906 C 87.605469 201.828125 87.273438 202.113281 86.910156 202.359375 C 86.542969 202.601562 86.152344 202.796875 85.734375 202.945312 C 85.320312 203.089844 84.894531 203.1875 84.457031 203.226562 C 84.015625 203.269531 83.578125 203.257812 83.144531 203.191406 C 82.710938 203.125 82.289062 203.007812 81.882812 202.835938 C 81.476562 202.664062 81.097656 202.449219 80.746094 202.183594 C 80.390625 201.921875 80.078125 201.617188 79.800781 201.277344 C 79.523438 200.933594 79.289062 200.5625 79.105469 200.164062 C 78.917969 199.765625 78.78125 199.347656 78.699219 198.917969 C 78.617188 198.484375 78.585938 198.046875 78.609375 197.609375 C 78.636719 197.167969 78.710938 196.738281 78.84375 196.320312 C 78.972656 195.898438 79.152344 195.5 79.382812 195.125 C 79.613281 194.746094 79.882812 194.40625 80.199219 194.097656 C 80.511719 193.785156 80.859375 193.519531 81.238281 193.296875 C 81.617188 193.074219 82.019531 192.898438 82.441406 192.777344 C 82.863281 192.652344 83.292969 192.582031 83.734375 192.5625 C 84.175781 192.542969 84.609375 192.582031 85.039062 192.671875 C 85.472656 192.761719 85.886719 192.902344 86.28125 193.09375 C 86.679688 193.285156 87.042969 193.523438 87.382812 193.804688 C 87.71875 194.089844 88.019531 194.410156 88.277344 194.765625 C 88.535156 195.121094 88.746094 195.503906 88.910156 195.914062 C 89.167969 196.554688 89.296875 197.21875 89.296875 197.910156 Z M 89.296875 197.910156 " fill-opacity="1" fill-rule="nonzero"/><g clip-path="url(#c26aac193d)"><path fill="#ffffff" d="M 104.777344 196.921875 L 92.398438 196.921875 C 91.570312 192.863281 88.027344 189.8125 83.777344 189.8125 C 79.53125 189.8125 75.984375 192.863281 75.15625 196.921875 L 62.777344 196.921875 C 63.6875 185.96875 72.742188 177.367188 83.777344 177.367188 C 94.816406 177.367188 103.871094 185.96875 104.777344 196.921875 Z M 104.777344 196.921875 " fill-opacity="1" fill-rule="nonzero"/></g><g clip-path="url(#8b4de31366)"><path fill="#ffffff" d="M 104.746094 200.914062 C 103.667969 211.691406 94.691406 220.105469 83.777344 220.105469 C 72.863281 220.105469 63.886719 211.691406 62.8125 200.914062 L 75.238281 200.914062 C 76.199219 204.789062 79.65625 207.660156 83.777344 207.660156 C 87.898438 207.660156 91.359375 204.789062 92.316406 200.914062 Z M 104.746094 200.914062 " fill-opacity="1" fill-rule="nonzero"/></g><path fill="#ffffff" d="M 88.574219 198.738281 C 88.570312 199.136719 88.523438 199.53125 88.425781 199.917969 C 88.332031 200.308594 88.191406 200.675781 88.003906 201.03125 C 87.816406 201.382812 87.589844 201.707031 87.324219 202.003906 C 87.058594 202.296875 86.761719 202.558594 86.433594 202.777344 C 86.105469 203 85.753906 203.175781 85.382812 203.3125 C 85.011719 203.445312 84.628906 203.53125 84.234375 203.566406 C 83.84375 203.605469 83.449219 203.59375 83.0625 203.535156 C 82.671875 203.472656 82.292969 203.367188 81.929688 203.210938 C 81.566406 203.058594 81.226562 202.859375 80.910156 202.621094 C 80.59375 202.378906 80.3125 202.105469 80.0625 201.796875 C 79.816406 201.484375 79.605469 201.148438 79.441406 200.785156 C 79.273438 200.421875 79.152344 200.046875 79.078125 199.652344 C 79.003906 199.257812 78.976562 198.863281 79 198.464844 C 79.019531 198.0625 79.089844 197.671875 79.207031 197.292969 C 79.324219 196.910156 79.484375 196.546875 79.691406 196.207031 C 79.894531 195.863281 80.140625 195.554688 80.421875 195.273438 C 80.703125 194.992188 81.011719 194.75 81.351562 194.546875 C 81.691406 194.34375 82.050781 194.1875 82.429688 194.074219 C 82.808594 193.960938 83.195312 193.894531 83.589844 193.878906 C 83.984375 193.863281 84.375 193.894531 84.761719 193.976562 C 85.144531 194.058594 85.515625 194.1875 85.871094 194.363281 C 86.226562 194.535156 86.554688 194.753906 86.859375 195.007812 C 87.160156 195.265625 87.425781 195.554688 87.660156 195.878906 C 87.890625 196.203125 88.082031 196.550781 88.226562 196.921875 C 88.457031 197.503906 88.574219 198.109375 88.574219 198.738281 Z M 88.574219 198.738281 " fill-opacity="1" fill-rule="nonzero"/><g clip-path="url(#a0b910def3)"><path fill="#ed1c24" d="M 105.105469 196.804688 L 92.628906 196.804688 C 91.796875 192.769531 88.222656 189.738281 83.941406 189.738281 C 79.660156 189.738281 76.085938 192.769531 75.253906 196.804688 L 62.777344 196.804688 C 63.691406 185.917969 72.820312 177.367188 83.941406 177.367188 C 95.066406 177.367188 104.191406 185.917969 105.105469 196.804688 Z M 105.105469 196.804688 " fill-opacity="1" fill-rule="nonzero"/></g><g clip-path="url(#2f00b69466)"><path fill="#ed1c24" d="M 88.773438 198.609375 C 88.773438 199.003906 88.726562 199.398438 88.628906 199.78125 C 88.53125 200.167969 88.386719 200.535156 88.199219 200.886719 C 88.011719 201.238281 87.785156 201.558594 87.515625 201.855469 C 87.25 202.148438 86.949219 202.40625 86.617188 202.625 C 86.285156 202.84375 85.933594 203.023438 85.558594 203.15625 C 85.183594 203.289062 84.800781 203.371094 84.402344 203.410156 C 84.007812 203.449219 83.613281 203.4375 83.21875 203.375 C 82.828125 203.316406 82.445312 203.210938 82.078125 203.054688 C 81.714844 202.902344 81.371094 202.707031 81.050781 202.46875 C 80.734375 202.230469 80.449219 201.957031 80.199219 201.648438 C 79.949219 201.339844 79.738281 201.003906 79.570312 200.644531 C 79.402344 200.285156 79.28125 199.910156 79.207031 199.519531 C 79.128906 199.128906 79.105469 198.734375 79.125 198.335938 C 79.148438 197.941406 79.21875 197.550781 79.335938 197.171875 C 79.453125 196.792969 79.617188 196.433594 79.824219 196.09375 C 80.03125 195.753906 80.273438 195.445312 80.558594 195.164062 C 80.839844 194.886719 81.15625 194.644531 81.496094 194.441406 C 81.839844 194.242188 82.203125 194.085938 82.582031 193.972656 C 82.964844 193.859375 83.355469 193.796875 83.75 193.78125 C 84.148438 193.765625 84.542969 193.796875 84.929688 193.878906 C 85.320312 193.957031 85.695312 194.085938 86.050781 194.257812 C 86.410156 194.433594 86.742188 194.648438 87.046875 194.902344 C 87.351562 195.160156 87.621094 195.445312 87.855469 195.769531 C 88.085938 196.089844 88.277344 196.4375 88.425781 196.804688 C 88.660156 197.382812 88.773438 197.984375 88.773438 198.609375 Z M 88.773438 198.609375 " fill-opacity="1" fill-rule="nonzero"/></g><g clip-path="url(#43502f6078)"><path fill="#ffffff" d="M 107.445312 196.101562 L 93.515625 196.101562 C 92.585938 191.617188 88.597656 188.242188 83.820312 188.242188 C 79.039062 188.242188 75.050781 191.617188 74.121094 196.101562 L 60.195312 196.101562 C 61.214844 183.996094 71.402344 174.488281 83.820312 174.488281 C 96.234375 174.488281 106.421875 183.996094 107.445312 196.101562 Z M 107.445312 196.101562 " fill-opacity="1" fill-rule="nonzero"/></g><g clip-path="url(#113703c892)"><path fill="#ffffff" d="M 107.40625 200.515625 C 106.195312 212.429688 96.097656 221.730469 83.820312 221.730469 C 71.539062 221.730469 61.441406 212.429688 60.230469 200.515625 L 74.214844 200.515625 C 75.292969 204.800781 79.183594 207.972656 83.820312 207.972656 C 88.453125 207.972656 92.347656 204.800781 93.425781 200.515625 Z M 107.40625 200.515625 " fill-opacity="1" fill-rule="nonzero"/></g><g clip-path="url(#dbeedd75ac)"><path fill="#ffffff" d="M 89.214844 198.109375 C 89.210938 198.328125 89.199219 198.546875 89.171875 198.765625 C 89.144531 198.984375 89.105469 199.199219 89.050781 199.414062 C 88.996094 199.628906 88.929688 199.835938 88.847656 200.042969 C 88.769531 200.25 88.675781 200.449219 88.570312 200.640625 C 88.46875 200.835938 88.351562 201.023438 88.222656 201.203125 C 88.097656 201.382812 87.957031 201.554688 87.808594 201.71875 C 87.660156 201.878906 87.503906 202.035156 87.335938 202.175781 C 87.167969 202.320312 86.992188 202.453125 86.804688 202.574219 C 86.621094 202.695312 86.429688 202.808594 86.234375 202.90625 C 86.035156 203.003906 85.832031 203.089844 85.625 203.164062 C 85.414062 203.238281 85.203125 203.296875 84.988281 203.34375 C 84.773438 203.394531 84.554688 203.425781 84.332031 203.449219 C 84.113281 203.46875 83.894531 203.476562 83.671875 203.46875 C 83.449219 203.464844 83.230469 203.445312 83.011719 203.410156 C 82.792969 203.378906 82.578125 203.332031 82.367188 203.273438 C 82.152344 203.210938 81.945312 203.140625 81.742188 203.054688 C 81.535156 202.96875 81.339844 202.871094 81.148438 202.761719 C 80.953125 202.652344 80.769531 202.53125 80.59375 202.402344 C 80.417969 202.269531 80.246094 202.125 80.089844 201.972656 C 79.929688 201.820312 79.78125 201.660156 79.640625 201.488281 C 79.5 201.316406 79.371094 201.136719 79.253906 200.953125 C 79.136719 200.765625 79.03125 200.570312 78.9375 200.371094 C 78.847656 200.171875 78.765625 199.96875 78.695312 199.757812 C 78.628906 199.550781 78.574219 199.335938 78.53125 199.121094 C 78.488281 198.902344 78.460938 198.683594 78.445312 198.464844 C 78.433594 198.246094 78.429688 198.027344 78.441406 197.804688 C 78.453125 197.585938 78.480469 197.367188 78.519531 197.152344 C 78.558594 196.933594 78.613281 196.71875 78.675781 196.511719 C 78.742188 196.300781 78.820312 196.09375 78.910156 195.894531 C 79.003906 195.691406 79.105469 195.5 79.222656 195.308594 C 79.335938 195.121094 79.460938 194.941406 79.597656 194.769531 C 79.738281 194.597656 79.882812 194.433594 80.042969 194.277344 C 80.199219 194.125 80.367188 193.980469 80.542969 193.84375 C 80.714844 193.710938 80.898438 193.585938 81.089844 193.476562 C 81.28125 193.363281 81.476562 193.265625 81.679688 193.175781 C 81.882812 193.089844 82.089844 193.015625 82.300781 192.953125 C 82.515625 192.890625 82.730469 192.839844 82.949219 192.804688 C 83.167969 192.769531 83.386719 192.746094 83.605469 192.738281 C 83.828125 192.730469 84.046875 192.734375 84.269531 192.753906 C 84.488281 192.769531 84.707031 192.800781 84.921875 192.847656 C 85.140625 192.890625 85.351562 192.949219 85.5625 193.019531 C 85.773438 193.09375 85.976562 193.175781 86.175781 193.273438 C 86.375 193.367188 86.566406 193.476562 86.75 193.59375 C 86.9375 193.714844 87.113281 193.847656 87.285156 193.988281 C 87.453125 194.128906 87.613281 194.28125 87.765625 194.441406 C 87.914062 194.601562 88.054688 194.773438 88.1875 194.949219 C 88.316406 195.128906 88.433594 195.3125 88.539062 195.507812 C 88.648438 195.699219 88.742188 195.898438 88.824219 196.101562 C 89.085938 196.746094 89.214844 197.414062 89.214844 198.109375 Z M 89.214844 198.109375 " fill-opacity="1" fill-rule="nonzero"/></g></svg>